<?xml version="1.0" encoding="UTF-8" standalone="no"?>
<!DOCTYPE svg PUBLIC "-//W3C//DTD SVG 1.1//EN" "http://www.w3.org/Graphics/SVG/1.1/DTD/svg11.dtd">
<!-- Created with Vectornator (http://vectornator.io/) -->
<svg height="100%" stroke-miterlimit="10" style="fill-rule:nonzero;clip-rule:evenodd;stroke-linecap:round;stroke-linejoin:round;" version="1.1" viewBox="0 0 512 512" width="100%" xml:space="preserve" xmlns="http://www.w3.org/2000/svg" xmlns:vectornator="http://vectornator.io" xmlns:xlink="http://www.w3.org/1999/xlink">
<defs/>
<g id="Layer-1" vectornator:layerName="Layer 1">
<path d="M69.3104 84.5104C67.945 84.7835 66.5113 85.3979 65.0094 86.3537C63.5074 87.3094 61.4593 89.221 58.8651 92.0883C56.2708 94.9557 53.54 96.3893 50.6727 96.3893C47.8054 96.3893 45.5525 96.799 43.914 97.6182C42.2755 98.4374 40.9784 99.8028 40.0226 101.714C39.0668 103.626 38.1111 104.65 37.1553 104.787C36.1995 104.923 35.1072 105.469 33.8783 106.425C32.6495 107.381 31.8302 108.746 31.4206 110.521C31.011 112.296 30.1918 113.457 28.9629 114.003C27.734 114.549 26.6417 115.3 25.6859 116.256C24.7302 117.212 24.184 118.236 24.0475 119.328C23.9109 120.42 23.9792 121.444 24.2523 122.4C24.5254 123.356 24.8667 124.312 25.2763 125.267C25.6859 126.223 26.3686 127.179 27.3244 128.135C28.2802 129.091 28.6898 130.593 28.5533 132.641C28.4167 134.689 28.5533 136.532 28.9629 138.17C29.3725 139.809 30.4648 141.721 32.2399 143.905C34.0149 146.09 35.7216 147.66 37.3601 148.616C38.9986 149.572 41.9342 151.005 46.1669 152.917C50.3996 154.828 53.9497 156.125 56.817 156.808C59.6843 157.491 61.5959 158.651 62.5517 160.29C63.5074 161.928 65.1459 163.703 67.4671 165.615C69.7883 167.527 74.021 169.37 80.1653 171.145C86.3096 172.92 89.6548 174.354 90.201 175.446C90.7471 176.538 91.3615 177.221 92.0442 177.494C92.7269 177.767 93.3414 178.518 93.8875 179.747C94.4337 180.976 95.3895 182.068 96.7549 183.024C98.1203 183.98 99.3491 185.277 100.441 186.915C101.534 188.554 102.763 189.578 104.128 189.987C105.493 190.397 106.586 191.216 107.405 192.445C108.224 193.674 109.317 194.425 110.682 194.698C112.047 194.971 113.276 195.79 114.368 197.156C115.461 198.521 116.826 199.34 118.465 199.613C120.103 199.886 121.4 200.364 122.356 201.047C123.312 201.73 124.063 204.051 124.609 208.011C125.155 211.97 125.974 215.384 127.067 218.251C128.159 221.118 128.569 223.849 128.296 226.443C128.022 229.038 128.364 232.519 129.32 236.889C130.275 241.258 131.299 244.467 132.392 246.515C133.484 248.563 134.235 250.474 134.645 252.249C135.054 254.024 135.942 256.209 137.307 258.803C138.673 261.398 139.833 264.06 140.789 266.791C141.745 269.522 143.11 272.457 144.885 275.598C146.66 278.738 148.435 281.401 150.21 283.585C151.985 285.77 154.579 288.432 157.993 291.573C161.406 294.713 164.479 297.103 167.209 298.741C168.575 299.56 169.94 300.38 171.306 301.199C170.896 301.745 170.486 302.291 170.077 302.837C169.257 303.93 167.346 305.568 164.342 307.753C161.338 309.937 156.491 314.102 149.801 320.246C143.11 326.39 139.355 330.009 138.536 331.101C137.717 332.193 136.078 333.695 133.621 335.607C131.163 337.518 128.773 339.771 126.452 342.366C124.131 344.96 121.81 345.779 119.489 344.823C117.168 343.868 112.935 343.117 106.791 342.57C100.646 342.024 95.2529 342.775 90.6106 344.823C85.9682 346.871 82.9644 348.578 81.599 349.944C80.2336 351.309 78.8682 355.269 77.5028 361.823C76.1374 368.376 75.4547 373.224 75.4547 376.364C75.4547 379.504 75.5912 381.348 75.8643 381.894C76.1374 382.44 76.7518 383.123 77.7076 383.942C78.6634 384.761 79.4826 385.854 80.1653 387.219C80.848 388.584 81.8038 389.745 83.0326 390.701C84.2615 391.656 86.7875 392.407 90.6106 392.954C94.4337 393.5 97.8472 393.705 100.851 393.568C102.353 393.5 103.855 393.431 105.357 393.363C105.289 394.524 105.22 395.684 105.152 396.845C105.016 399.166 105.152 401.214 105.562 402.989C105.971 404.764 106.586 405.993 107.405 406.676C108.224 407.359 109.521 409.27 111.296 412.411C113.071 415.551 114.983 417.872 117.031 419.374C119.079 420.876 121.469 422.173 124.199 423.265C126.93 424.358 130.344 424.699 134.44 424.289C138.536 423.88 141.403 423.265 143.042 422.446C144.68 421.627 146.865 419.852 149.596 417.121C152.327 414.39 154.443 411.386 155.945 408.11C157.447 404.833 158.403 401.214 158.812 397.255C159.222 393.295 158.676 389.608 157.174 386.195C155.672 382.781 154.306 380.528 153.077 379.436C151.849 378.344 151.234 377.525 151.234 376.978C151.234 376.432 153.555 374.111 158.198 370.015C162.84 365.919 165.434 363.939 165.981 364.075C166.527 364.212 167.141 365.987 167.824 369.401C168.506 372.814 169.326 375.681 170.282 378.003C171.237 380.324 175.197 384.761 182.16 391.315C189.124 397.869 193.493 401.692 195.268 402.784C197.043 403.877 198.613 405.106 199.979 406.471C201.344 407.836 202.983 408.997 204.894 409.953C206.806 410.909 212.541 411.864 222.098 412.82C231.656 413.776 239.166 413.708 244.627 412.615C250.089 411.523 254.936 409.816 259.169 407.495C263.402 405.174 266.337 403.809 267.976 403.399C269.614 402.989 271.935 401.965 274.939 400.327C277.943 398.688 281.698 394.456 286.204 387.629C290.71 380.802 293.509 373.906 294.601 366.943C295.693 359.979 296.376 356.361 296.649 356.088C296.922 355.815 297.878 355.61 299.516 355.473C301.155 355.337 303.408 357.453 306.275 361.823C309.142 366.192 311.122 371.107 312.215 376.569C313.307 382.03 313.99 386.331 314.263 389.472C314.536 392.612 315.287 395.275 316.516 397.459C317.744 399.644 318.495 401.351 318.768 402.58C319.042 403.809 320.407 406.539 322.865 410.772C325.322 415.005 327.78 418.35 330.238 420.808C332.695 423.265 334.948 424.972 336.996 425.928C339.045 426.884 341.775 427.43 345.189 427.566C348.602 427.703 351.538 427.293 353.996 426.338C356.453 425.382 358.843 423.47 361.164 420.603C363.485 417.736 364.919 414.595 365.465 411.182C366.011 407.768 367.718 405.174 370.585 403.399C373.453 401.624 375.364 400.19 376.32 399.098C377.276 398.006 378.709 397.528 380.621 397.664C382.532 397.801 384.444 397.391 386.356 396.435C388.267 395.48 390.384 393.568 392.705 390.701C395.026 387.833 396.528 385.717 397.211 384.352C397.893 382.986 398.371 381.484 398.644 379.846C398.917 378.207 399.054 376.227 399.054 373.906C399.054 371.585 398.644 368.718 397.825 365.304C397.006 361.891 396.118 359.365 395.162 357.726C394.207 356.088 392.705 354.176 390.657 351.992C388.609 349.807 386.014 347.759 382.874 345.847C379.733 343.936 375.842 342.366 371.2 341.137C366.557 339.908 362.666 338.611 359.526 337.245C356.385 335.88 353.04 334.856 349.49 334.173C345.94 333.491 342.731 332.398 339.864 330.896C336.996 329.394 334.471 328.302 332.286 327.619C330.101 326.937 328.736 326.39 328.19 325.981C327.644 325.571 327.644 324.889 328.19 323.933C328.736 322.977 328.941 321.885 328.804 320.656C328.668 319.427 328.326 318.403 327.78 317.584C327.234 316.764 326.415 316.082 325.322 315.536C324.23 314.989 323.547 314.238 323.274 313.283C323.001 312.327 322.592 311.576 322.045 311.03C321.499 310.484 320.543 310.142 319.178 310.006C317.813 309.869 316.857 309.937 316.311 310.211C315.765 310.484 314.809 310.142 313.443 309.186C312.078 308.231 311.464 307.207 311.6 306.114C311.737 305.022 311.668 304.271 311.395 303.861C311.122 303.452 309.893 303.247 307.709 303.247C305.524 303.247 304.022 302.974 303.203 302.428C302.384 301.882 301.496 301.54 300.54 301.404C299.585 301.267 299.107 300.926 299.107 300.38C299.107 299.834 299.312 299.287 299.721 298.741C300.131 298.195 300.404 297.376 300.54 296.283C300.677 295.191 301.564 294.099 303.203 293.007C304.841 291.914 308.391 288.637 313.853 283.176C319.315 277.714 322.865 273.14 324.503 269.453C326.142 265.767 327.507 262.217 328.599 258.803C329.692 255.39 330.784 251.157 331.876 246.105C332.969 241.053 333.924 237.64 334.744 235.865C335.563 234.09 335.904 232.656 335.768 231.564C335.631 230.471 335.972 228.901 336.792 226.853C337.611 224.805 342.799 219.139 352.357 209.854C361.915 200.569 368.196 194.834 371.2 192.65C374.204 190.465 376.525 188.349 378.163 186.301C379.802 184.253 382.464 184.321 386.151 186.506C389.837 188.69 391.612 191.148 391.476 193.879C391.339 196.609 391.544 199.272 392.09 201.866C392.636 204.461 392.568 207.533 391.885 211.083C391.203 214.633 391.066 218.934 391.476 223.986C391.885 229.038 391.817 232.11 391.271 233.202C390.725 234.294 390.179 237.708 389.633 243.443C389.086 249.177 388.199 253.82 386.97 257.37C385.741 260.92 383.761 265.152 381.031 270.068C378.3 274.983 376.456 279.284 375.501 282.971C374.545 286.657 374.067 290.412 374.067 294.235C374.067 298.058 374.955 301.813 376.73 305.5C378.505 309.186 380.211 311.712 381.85 313.078C383.488 314.443 385.536 315.74 387.994 316.969C390.452 318.198 394.138 319.359 399.054 320.451C403.969 321.543 407.383 322.499 409.294 323.318C411.206 324.138 414.141 324.82 418.101 325.366C422.061 325.913 425.474 326.595 428.342 327.415C431.209 328.234 435.373 328.643 440.835 328.643C446.297 328.643 450.393 328.029 453.124 326.8C455.854 325.571 458.38 323.455 460.701 320.451C463.023 317.447 464.593 313.761 465.412 309.391C466.231 305.022 466.641 299.356 466.641 292.392C466.641 288.91 466.641 285.429 466.641 281.947C466.846 281.947 467.051 281.947 467.255 281.947C467.46 281.947 467.665 281.947 467.87 281.947C467.87 286.18 467.87 290.412 467.87 294.645C467.87 303.11 468.211 309.323 468.894 313.283C469.577 317.242 470.259 319.564 470.942 320.246C471.625 320.929 472.512 321.134 473.604 320.861C474.697 320.588 475.311 319.222 475.448 316.764C475.584 314.307 475.311 308.299 474.629 298.741C473.946 289.183 473.673 284.131 473.809 283.585C473.946 283.039 474.697 282.766 476.062 282.766C477.428 282.766 478.452 282.425 479.134 281.742C479.817 281.059 480.295 279.421 480.568 276.827C480.841 274.232 480.705 272.662 480.158 272.116C479.612 271.57 478.998 271.228 478.315 271.092C477.632 270.955 477.155 270.614 476.881 270.068C476.608 269.522 476.54 269.044 476.677 268.634C476.813 268.225 477.837 268.02 479.749 268.02C481.66 268.02 483.026 267.747 483.845 267.201C484.664 266.654 484.937 265.767 484.664 264.538C484.391 263.309 484.596 262.422 485.279 261.875C485.961 261.329 486.098 260.578 485.688 259.623C485.279 258.667 485.142 257.779 485.279 256.96C485.415 256.141 485.688 255.526 486.098 255.117C486.507 254.707 487.054 252.659 487.736 248.972C488.419 245.286 487.873 242.965 486.098 242.009C484.323 241.053 482.684 240.575 481.182 240.575C479.681 240.575 478.656 240.848 478.11 241.395C477.564 241.941 476.813 243.921 475.857 247.334C474.902 250.747 473.604 254.434 471.966 258.394C470.328 262.353 469.508 264.743 469.508 265.562C469.508 265.972 469.508 266.381 469.508 266.791C469.303 266.791 469.099 266.791 468.894 266.791C468.689 266.791 468.484 266.791 468.279 266.791C468.689 265.152 469.099 263.514 469.508 261.875C470.328 258.599 471.078 256.482 471.761 255.526C472.444 254.571 472.58 252.864 472.171 250.406C471.761 247.948 470.669 245.491 468.894 243.033C467.119 240.575 463.296 237.776 457.425 234.636C451.553 231.495 448.686 228.014 448.823 224.191C448.959 220.367 448.891 216.681 448.618 213.131C448.345 209.581 447.662 206.167 446.57 202.89C445.477 199.613 444.658 197.634 444.112 196.951C443.566 196.268 443.293 195.585 443.293 194.903C443.293 194.22 443.839 193.469 444.931 192.65C446.023 191.831 446.774 190.943 447.184 189.987C447.594 189.032 448.345 188.007 449.437 186.915C450.529 185.823 451.349 184.594 451.895 183.229C452.441 181.863 452.714 180.02 452.714 177.699C452.714 175.378 452.236 172.852 451.28 170.121C450.324 167.39 449.232 165.205 448.003 163.567C446.774 161.928 445.068 160.085 442.883 158.037C440.698 155.989 438.036 154.009 434.895 152.098C431.755 150.186 428.956 149.23 426.498 149.23C424.041 149.23 422.266 148.548 421.173 147.182C420.081 145.817 418.101 143.905 415.234 141.447C412.366 138.99 409.977 137.351 408.065 136.532C406.154 135.713 403.901 135.371 401.307 135.508C398.712 135.645 397.347 134.962 397.211 133.46C397.074 131.958 396.391 129.227 395.162 125.267C393.934 121.308 392.773 118.304 391.681 116.256C390.588 114.208 389.564 112.774 388.609 111.955C387.653 111.136 386.219 110.248 384.308 109.292C382.396 108.337 379.733 107.859 376.32 107.859C372.906 107.859 368.674 108.814 363.622 110.726C358.57 112.638 355.225 114.344 353.586 115.846C351.948 117.348 350.309 119.26 348.671 121.581C347.032 123.902 345.94 126.223 345.394 128.544C344.848 130.866 344.643 134.211 344.779 138.58C344.916 142.949 346.008 147.114 348.056 151.073C350.104 155.033 348.807 159.266 344.165 163.772C339.522 168.277 335.836 171.623 333.105 173.807C330.374 175.992 328.531 177.221 327.575 177.494C327.097 177.63 326.619 177.767 326.142 177.904C325.527 175.719 324.913 173.534 324.298 171.35C323.069 166.98 321.021 161.655 318.154 155.374C315.287 149.094 313.17 144.929 311.805 142.881C310.44 140.833 308.938 139.058 307.299 137.556C305.661 136.054 304.159 134.211 302.793 132.026C301.428 129.842 299.653 127.657 297.468 125.472C295.284 123.288 293.031 121.308 290.71 119.533C288.388 117.758 286.409 116.597 284.77 116.051C283.132 115.505 280.537 114.276 276.987 112.364C273.437 110.453 266.474 108.132 256.097 105.401C245.72 102.67 235.138 101.305 224.351 101.305C213.565 101.305 205.236 102.261 199.364 104.172C193.493 106.084 189.943 107.381 188.714 108.063C187.486 108.746 186.257 109.565 185.028 110.521C183.799 111.477 181.683 112.706 178.679 114.208C175.675 115.71 173.012 117.485 170.691 119.533C168.37 121.581 166.254 123.151 164.342 124.243C162.43 125.336 159.904 127.384 156.764 130.388C153.624 133.392 150.961 136.259 148.776 138.99C146.592 141.721 144.407 145.885 142.223 151.483C140.038 157.081 138.536 160.017 137.717 160.29C136.898 160.563 136.078 159.88 135.259 158.242C134.44 156.603 133.143 155.443 131.368 154.76C129.593 154.077 128.364 153.258 127.681 152.302C126.998 151.347 126.179 150.732 125.223 150.459C124.268 150.186 123.653 149.708 123.38 149.025C123.107 148.343 122.493 147.592 121.537 146.772C120.581 145.953 119.694 145.475 118.874 145.339C118.055 145.202 117.031 144.724 115.802 143.905C114.573 143.086 113.481 142.676 112.525 142.676C111.569 142.676 110.341 141.857 108.839 140.219C107.337 138.58 105.766 135.781 104.128 131.821C102.49 127.862 101.124 123.766 100.032 119.533C98.9395 115.3 97.7789 111.887 96.5501 109.292C95.3212 106.698 94.502 104.445 94.0923 102.534C93.6827 100.622 92.8635 98.5057 91.6346 96.1845C90.4058 93.8634 88.7673 91.6787 86.7192 89.6306C84.6711 87.5825 81.599 86.1489 77.5028 85.3296C73.4066 84.5104 70.6758 84.2373 69.3104 84.5104ZM77.298 87.1729C80.4384 87.8556 83.1009 89.3575 85.2855 91.6787C87.4702 93.9999 89.2452 97.1403 90.6106 101.1C91.976 105.06 93.0683 107.722 93.8875 109.088C94.7068 110.453 95.526 112.911 96.3452 116.461C97.1645 120.011 98.5299 124.38 100.441 129.568C102.353 134.757 104.128 138.375 105.766 140.423C106.586 141.447 107.405 142.471 108.224 143.496C108.019 143.496 107.815 143.496 107.61 143.496C107.2 143.496 105.289 142.062 101.875 139.195C98.4616 136.327 96.0722 132.231 94.7068 126.906C93.3414 121.581 91.7712 117.348 89.9962 114.208C88.2211 111.067 87.1971 108.951 86.924 107.859C86.6509 106.766 86.1048 105.401 85.2855 103.762C84.4663 102.124 82.7595 100.008 80.1653 97.4134C77.571 94.8191 75.3181 93.3855 73.4066 93.1124C71.495 92.8393 69.72 92.9758 68.0815 93.522C66.443 94.0682 65.1459 94.8191 64.1901 95.7749C63.2344 96.7307 62.6199 97.6182 62.3469 98.4374C62.0738 99.2567 61.5959 99.598 60.9132 99.4615C60.2305 99.3249 59.6161 98.9836 59.0699 98.4374C58.5237 97.8913 58.4555 97.1403 58.8651 96.1845C59.2747 95.2288 60.367 93.7951 62.142 91.8835C63.9171 89.972 65.4873 88.6066 66.8527 87.7873C68.2181 86.9681 69.5152 86.4902 70.7441 86.3537C71.9729 86.2171 74.1575 86.4902 77.298 87.1729ZM72.1777 95.9797C73.5431 95.9797 75.3864 97.072 77.7076 99.2567C80.0288 101.441 81.872 104.172 83.2374 107.449C84.6028 110.726 86.0365 113.662 87.5384 116.256C89.0404 118.85 90.201 121.717 91.0202 124.858C91.4298 126.428 91.8394 127.998 92.2491 129.568C91.7712 129.227 91.2933 128.886 90.8154 128.544C89.8596 127.862 88.6308 126.428 87.1288 124.243C85.6269 122.059 82.7595 118.85 78.5268 114.617C74.2941 110.385 70.8123 107.244 68.0815 105.196C65.3507 103.148 64.395 101.373 65.2142 99.8711C66.0334 98.3692 67.0575 97.3451 68.2863 96.799C69.5152 96.2528 70.8123 95.9797 72.1777 95.9797ZM53.1304 98.6422C54.9054 99.0519 58.3189 101.236 63.3709 105.196C68.4229 109.156 73.1335 113.389 77.5028 117.894C81.872 122.4 84.4663 125.336 85.2855 126.701C86.1048 128.067 87.675 129.773 89.9962 131.821C92.3173 133.869 93.5462 135.167 93.6827 135.713C93.8193 136.259 95.7308 137.966 99.4174 140.833C103.104 143.7 104.879 145.475 104.742 146.158C104.606 146.841 104.196 147.319 103.514 147.592C102.831 147.865 101.943 147.523 100.851 146.568C99.7587 145.612 97.6424 144.383 94.502 142.881C91.3615 141.379 89.3135 139.672 88.3577 137.761C87.4019 135.849 85.4221 133.05 82.4182 129.364C79.4143 125.677 75.3864 121.922 70.3344 118.099C65.2825 114.276 60.9132 111.75 57.2266 110.521C53.54 109.292 51.2871 108.132 50.4679 107.039C49.6487 105.947 48.8977 105.606 48.215 106.015C47.5323 106.425 47.3958 107.244 47.8054 108.473C48.215 109.702 49.8535 112.501 52.7208 116.87C55.5881 121.24 58.6603 124.653 61.9372 127.111C65.2142 129.568 68.0815 131.412 70.5392 132.641C72.997 133.869 75.3864 135.303 77.7076 136.942C80.0288 138.58 83.9884 140.833 89.5865 143.7C95.1847 146.568 98.4616 148.411 99.4174 149.23C100.373 150.049 100.715 150.732 100.441 151.278C100.168 151.824 98.6664 151.551 95.9356 150.459C93.2048 149.367 90.6788 147.865 88.3577 145.953C86.0365 144.042 84.1932 142.881 82.8278 142.471C81.4624 142.062 78.7999 140.492 74.8402 137.761C70.8806 135.03 67.1257 132.845 63.5757 131.207C60.0257 129.568 56.2026 126.974 52.1064 123.424C48.0102 119.874 45.8938 117.826 45.7573 117.28C45.6207 116.734 44.7332 115.505 43.0948 113.593C41.4563 111.682 40.5688 110.248 40.4322 109.292C40.2957 108.337 40.7053 106.63 41.6611 104.172C42.6169 101.714 43.5726 100.212 44.5284 99.6663C45.4842 99.1201 46.7131 98.7105 48.215 98.4374C49.7169 98.1644 51.3554 98.2326 53.1304 98.6422ZM231.929 106.63C238.483 106.903 242.579 107.381 244.218 108.063C245.856 108.746 248.724 109.497 252.82 110.316C256.916 111.136 261.149 112.228 265.518 113.593C269.887 114.959 274.666 117.007 279.855 119.738C285.043 122.468 288.73 124.858 290.914 126.906C293.099 128.954 295.352 131.617 297.673 134.894C299.994 138.17 301.769 140.287 302.998 141.243C304.227 142.198 306.07 144.724 308.528 148.821C310.986 152.917 313.239 157.559 315.287 162.748C317.335 167.936 318.7 172.852 319.383 177.494C320.066 182.136 320.134 184.526 319.588 184.662C319.042 184.799 317.881 184.457 316.106 183.638C315.218 183.229 314.331 182.819 313.443 182.409C313.58 182.205 313.716 182 313.853 181.795C314.126 181.385 314.263 180.43 314.263 178.928C314.263 177.426 313.307 172.92 311.395 165.41C310.44 161.655 309.484 157.9 308.528 154.146C308.05 154.282 307.572 154.419 307.094 154.555C306.139 154.828 305.661 155.374 305.661 156.194C305.661 157.013 305.934 157.832 306.48 158.651C307.026 159.471 307.367 160.836 307.504 162.748C307.64 164.659 308.187 166.98 309.142 169.711C310.098 172.442 310.713 174.9 310.986 177.084C311.122 178.177 311.259 179.269 311.395 180.361C309.211 179.337 307.026 178.313 304.841 177.289C300.472 175.241 298.219 172.51 298.083 169.097C297.946 165.683 296.649 160.29 294.191 152.917C292.962 149.23 291.734 145.544 290.505 141.857C290.163 141.994 289.822 142.13 289.481 142.267C288.798 142.54 288.457 143.086 288.457 143.905C288.457 144.724 289.549 148.479 291.734 155.17C293.918 161.86 295.079 166.502 295.215 169.097C295.284 170.394 295.352 171.691 295.42 172.988C293.372 172.237 291.324 171.486 289.276 170.735C285.18 169.233 282.927 165.888 282.517 160.7C282.108 155.511 281.015 149.913 279.24 143.905C278.353 140.901 277.465 137.897 276.578 134.894C276.1 135.03 275.622 135.167 275.144 135.303C274.188 135.576 273.71 136.054 273.71 136.737C273.71 137.42 273.847 137.829 274.12 137.966C274.393 138.102 274.598 138.853 274.734 140.219C274.871 141.584 275.212 142.676 275.758 143.496C276.305 144.315 276.919 145.953 277.602 148.411C278.284 150.869 278.831 154.692 279.24 159.88C279.445 162.475 279.65 165.069 279.855 167.663C277.807 166.98 275.758 166.298 273.71 165.615C269.614 164.25 266.269 163.499 263.675 163.362C261.08 163.226 259.852 160.426 259.988 154.965C260.125 149.503 259.988 145.066 259.578 141.652C259.374 139.946 259.169 138.239 258.964 136.532C258.554 136.6 258.145 136.669 257.735 136.737C256.916 136.873 256.575 141.174 256.711 149.64C256.779 153.873 256.848 158.105 256.916 162.338C254.39 162.065 251.864 161.792 249.338 161.519C244.286 160.973 241.828 158.037 241.965 152.712C242.101 147.387 241.897 142.403 241.35 137.761C241.077 135.44 240.804 133.119 240.531 130.797C240.122 130.866 239.712 130.934 239.302 131.002C238.483 131.139 238.278 133.938 238.688 139.399C239.098 144.861 239.234 149.572 239.098 153.531C239.029 155.511 238.961 157.491 238.893 159.471C235.343 159.129 231.793 158.788 228.243 158.447C221.143 157.764 217.456 156.603 217.183 154.965C216.91 153.326 216.978 150.254 217.388 145.748C217.797 141.243 218.548 136.805 219.641 132.436C220.733 128.067 221.552 125.199 222.098 123.834C222.644 122.468 223.122 121.649 223.532 121.376C223.942 121.103 224.146 120.693 224.146 120.147C224.146 119.601 223.942 119.123 223.532 118.714C223.122 118.304 222.508 118.236 221.689 118.509C220.869 118.782 219.709 121.24 218.207 125.882C216.705 130.524 215.613 136.873 214.93 144.929C214.589 148.957 214.247 152.985 213.906 157.013C210.424 156.74 206.942 156.467 203.461 156.194C199.979 155.921 196.497 155.648 193.015 155.374C194.039 152.917 195.063 150.459 196.088 148.001C198.136 143.086 199.706 139.672 200.798 137.761C201.89 135.849 202.778 134.689 203.461 134.279C203.802 134.074 204.143 133.869 204.485 133.665C204.28 133.323 204.075 132.982 203.87 132.641C203.461 131.958 203.051 131.617 202.641 131.617C202.232 131.617 201.617 131.89 200.798 132.436C199.979 132.982 198.477 135.44 196.292 139.809C194.108 144.178 192.469 147.865 191.377 150.869C190.285 153.873 187.963 155.579 184.413 155.989C180.863 156.399 177.45 157.218 174.173 158.447C172.534 159.061 170.896 159.675 169.257 160.29C169.667 158.856 170.077 157.423 170.486 155.989C171.306 153.122 172.603 150.118 174.378 146.977C176.153 143.837 177.518 141.038 178.474 138.58C179.43 136.122 180.659 134.074 182.16 132.436C183.662 130.797 184.413 129.705 184.413 129.159C184.413 128.613 184.072 128.203 183.389 127.93C182.707 127.657 181.341 128.818 179.293 131.412C177.245 134.006 175.743 136.6 174.787 139.195C173.832 141.789 172.603 144.315 171.101 146.772C169.599 149.23 168.302 152.302 167.209 155.989C166.117 159.675 164.205 162.201 161.475 163.567C158.744 164.932 156.354 165.82 154.306 166.229C153.282 166.434 152.258 166.639 151.234 166.844C152.258 164.318 153.282 161.792 154.306 159.266C156.354 154.214 157.583 151.551 157.993 151.278C158.403 151.005 159.222 149.64 160.451 147.182C161.68 144.724 162.772 143.222 163.728 142.676C164.683 142.13 165.161 141.584 165.161 141.038C165.161 140.492 164.82 140.082 164.137 139.809C163.455 139.536 162.567 139.741 161.475 140.423C160.382 141.106 159.154 142.813 157.788 145.544C156.423 148.274 155.535 149.776 155.126 150.049C154.716 150.323 153.351 153.122 151.029 158.447C148.708 163.772 147.548 166.776 147.548 167.458C147.548 168.141 146.387 168.824 144.066 169.506C142.905 169.848 141.745 170.189 140.584 170.53C142.291 166.366 143.998 162.201 145.704 158.037C149.118 149.708 152.668 143.427 156.354 139.195C160.041 134.962 163.045 131.958 165.366 130.183C167.687 128.408 169.257 127.384 170.077 127.111C170.896 126.838 172.33 125.745 174.378 123.834C176.426 121.922 178.952 120.216 181.956 118.714C184.96 117.212 187.554 115.71 189.738 114.208C191.923 112.706 195.746 111.067 201.208 109.292C206.669 107.517 211.516 106.562 215.749 106.425C219.982 106.288 225.375 106.357 231.929 106.63ZM36.9505 107.039C37.087 107.039 37.2235 107.039 37.3601 107.039C37.3601 107.722 37.3601 108.405 37.3601 109.088C37.3601 110.453 37.838 111.887 38.7938 113.389C39.7495 114.89 42.2072 117.69 46.1669 121.786C50.1266 125.882 53.4035 128.818 55.9978 130.593C58.592 132.368 62.2786 134.416 67.0575 136.737C71.8364 139.058 74.9085 140.833 76.2739 142.062C77.6393 143.291 79.2095 144.247 80.9845 144.929C82.7595 145.612 84.6028 146.772 86.5144 148.411C88.4259 150.049 90.8154 151.483 93.6827 152.712C96.5501 153.941 97.9837 154.965 97.9837 155.784C97.9837 156.194 97.9837 156.603 97.9837 157.013C97.301 156.535 96.6183 156.057 95.9356 155.579C94.5702 154.624 90.8837 152.78 84.8759 150.049C78.8682 147.319 75.1816 145.339 73.8162 144.11C72.4508 142.881 70.7441 141.857 68.696 141.038C66.6479 140.219 64.8728 139.058 63.3709 137.556C61.869 136.054 60.4353 135.03 59.0699 134.484C57.7045 133.938 56.2026 132.982 54.5641 131.617C52.9256 130.251 50.8093 128.818 48.215 127.316C45.6207 125.814 43.9823 124.585 43.2996 123.629C42.6169 122.673 41.2515 121.376 39.2034 119.738C37.1553 118.099 35.7216 116.597 34.9024 115.232C34.0831 113.866 33.6735 112.638 33.6735 111.545C33.6735 110.453 34.1514 109.429 35.1072 108.473C36.063 107.517 36.6774 107.039 36.9505 107.039ZM53.3352 112.364C54.0862 112.569 54.8372 112.774 55.5881 112.979C57.0901 113.389 57.7728 114.344 57.6362 115.846C57.568 116.597 57.4997 117.348 57.4314 118.099C57.0901 117.826 56.7487 117.553 56.4074 117.28C55.7247 116.734 55.042 115.778 54.3593 114.413C54.0179 113.73 53.6766 113.047 53.3352 112.364ZM376.115 113.184C378.573 113.184 380.484 113.525 381.85 114.208C383.215 114.89 384.444 115.983 385.536 117.485C386.629 118.987 387.858 121.786 389.223 125.882C390.588 129.978 391.271 133.187 391.271 135.508C391.271 137.829 390.725 139.604 389.633 140.833C388.54 142.062 388.131 143.222 388.404 144.315C388.677 145.407 389.086 146.09 389.633 146.363C390.179 146.636 390.861 146.704 391.681 146.568C392.5 146.431 393.524 145.748 394.753 144.52C395.982 143.291 397.279 142.403 398.644 141.857C400.01 141.311 401.512 141.106 403.15 141.243C404.788 141.379 406.359 141.925 407.861 142.881C409.363 143.837 410.728 145.066 411.957 146.568C413.186 148.07 414.278 149.094 415.234 149.64C416.19 150.186 417.077 151.278 417.896 152.917C418.716 154.555 419.193 155.989 419.33 157.218C419.466 158.447 418.92 159.266 417.691 159.675C416.463 160.085 415.575 159.675 415.029 158.447C414.483 157.218 412.981 155.921 410.523 154.555C408.065 153.19 406.222 152.507 404.993 152.507C403.764 152.507 402.194 152.985 400.283 153.941C398.371 154.897 396.869 155.921 395.777 157.013C394.685 158.105 393.797 159.402 393.114 160.904C392.432 162.406 392.227 164.318 392.5 166.639C392.773 168.96 393.524 170.667 394.753 171.759C395.982 172.852 396.05 175.104 394.958 178.518C394.411 180.225 393.865 181.931 393.319 183.638C391.339 182.409 389.359 181.181 387.38 179.952C383.42 177.494 380.826 176.333 379.597 176.47C378.368 176.606 376.73 178.04 374.681 180.771C372.633 183.502 370.039 186.028 366.899 188.349C363.758 190.67 360.55 193.537 357.273 196.951C353.996 200.364 351.06 203.095 348.466 205.143C345.872 207.191 343.619 209.308 341.707 211.492C340.751 212.585 339.796 213.677 338.84 214.769C338.089 212.994 337.338 211.219 336.587 209.444C335.085 205.894 333.72 203.3 332.491 201.661C331.262 200.023 330.374 198.385 329.828 196.746C329.282 195.108 328.463 193.537 327.37 192.035C326.278 190.533 325.937 189.236 326.346 188.144C326.756 187.052 327.644 185.755 329.009 184.253C330.374 182.751 332.764 180.771 336.177 178.313C339.591 175.855 342.595 173.261 345.189 170.53C347.783 167.8 350.582 165.205 353.586 162.748C356.59 160.29 358.228 158.515 358.502 157.423C358.775 156.33 358.228 155.101 356.863 153.736C355.498 152.371 354.064 150.049 352.562 146.772C351.06 143.496 350.309 140.355 350.309 137.351C350.309 134.347 350.514 131.89 350.924 129.978C351.333 128.067 352.835 125.609 355.429 122.605C358.024 119.601 361.505 117.28 365.875 115.641C370.244 114.003 373.657 113.184 376.115 113.184ZM60.7084 115.232C62.142 116.119 63.5757 117.007 65.0094 117.894C67.8767 119.669 70.2662 121.376 72.1777 123.015C74.0893 124.653 76.6153 127.452 79.7557 131.412C81.3259 133.392 82.8961 135.371 84.4663 137.351C81.7355 135.781 79.0047 134.211 76.2739 132.641C70.8123 129.5 66.8527 127.043 64.395 125.267C61.9372 123.492 60.7084 121.376 60.7084 118.918C60.7084 117.69 60.7084 116.461 60.7084 115.232ZM31.2158 116.461C32.035 116.734 33.1274 117.758 34.4928 119.533C35.8582 121.308 36.9505 122.4 37.7697 122.81C38.5889 123.219 40.0226 124.448 42.0707 126.496C44.1188 128.544 45.8256 129.842 47.1909 130.388C48.5563 130.934 50.4679 132.163 52.9256 134.074C55.3833 135.986 56.9535 137.01 57.6362 137.146C58.3189 137.283 59.6161 138.239 61.5276 140.014C63.4392 141.789 65.419 143.086 67.4671 143.905C69.5152 144.724 71.2219 145.748 72.5873 146.977C73.9527 148.206 78.1855 150.527 85.2855 153.941C92.3856 157.354 96.0722 159.198 96.3452 159.471C96.6183 159.744 96.6866 160.222 96.5501 160.904C96.4135 161.587 95.8674 161.997 94.9116 162.133C93.9558 162.27 92.4539 161.724 90.4058 160.495C88.3577 159.266 86.1048 158.174 83.6471 157.218C81.1893 156.262 77.6393 154.35 72.997 151.483C68.3546 148.616 62.2103 145.271 54.5641 141.447C46.9179 137.624 42.139 134.962 40.2274 133.46C38.3159 131.958 36.5409 130.797 34.9024 129.978C33.2639 129.159 31.6937 128.067 30.1918 126.701C28.6898 125.336 27.734 124.107 27.3244 123.015C26.9148 121.922 26.7783 120.83 26.9148 119.738C27.0513 118.645 27.5975 117.758 28.5533 117.075C29.5091 116.392 30.3966 116.188 31.2158 116.461ZM31.2158 131.617C32.035 132.094 32.8543 132.572 33.6735 133.05C35.312 134.006 36.336 135.371 36.7457 137.146C37.1553 138.921 38.0428 140.492 39.4082 141.857C40.7736 143.222 43.4361 144.451 47.3958 145.544C51.3554 146.636 54.1545 147.114 55.793 146.977C57.4314 146.841 60.094 147.728 63.7805 149.64C67.4671 151.551 69.8565 152.985 70.9489 153.941C72.0412 154.897 75.0451 156.467 79.9605 158.651C84.8759 160.836 87.7432 162.27 88.5625 162.952C88.9721 163.294 89.3817 163.635 89.7913 163.976C84.9442 162.406 80.097 160.836 75.2499 159.266C65.5555 156.125 59.4113 154.282 56.817 153.736C54.2227 153.19 50.6044 151.824 45.9621 149.64C41.3197 147.455 38.0428 145.544 36.1312 143.905C34.2197 142.267 32.9225 140.56 32.2399 138.785C31.5572 137.01 31.2158 135.371 31.2158 133.869C31.2158 133.119 31.2158 132.368 31.2158 131.617ZM39.8178 136.942C41.5928 137.966 43.3678 138.99 45.1429 140.014C46.9179 141.038 48.6929 142.062 50.4679 143.086C49.1708 142.745 47.8736 142.403 46.5765 142.062C43.9823 141.379 42.2072 140.355 41.2515 138.99C40.7736 138.307 40.2957 137.624 39.8178 136.942ZM112.73 145.134C113.276 145.134 113.618 145.339 113.754 145.748C113.891 146.158 113.344 146.977 112.116 148.206C110.887 149.435 109.59 151.278 108.224 153.736C106.859 156.194 106.108 157.9 105.971 158.856C105.835 159.812 105.016 161.928 103.514 165.205C102.012 168.482 100.1 170.94 97.7789 172.578C95.4577 174.217 94.0923 175.036 93.6827 175.036C93.4779 175.036 93.2731 175.036 93.0683 175.036C93.0683 174.763 93.0683 174.49 93.0683 174.217C93.0683 173.671 94.0241 171.828 95.9356 168.687C97.8472 165.547 99.3491 162.27 100.441 158.856C101.534 155.443 103.377 152.371 105.971 149.64C108.566 146.909 110.204 145.475 110.887 145.339C111.569 145.202 112.184 145.134 112.73 145.134ZM119.079 148.206C120.035 148.616 120.513 149.162 120.513 149.845C120.513 150.527 118.943 152.917 115.802 157.013C112.662 161.109 110.067 165.069 108.019 168.892C105.971 172.715 104.196 175.446 102.694 177.084C101.192 178.723 100.373 179.815 100.237 180.361C100.1 180.907 99.827 181.249 99.4174 181.385C99.0078 181.522 98.3251 180.907 97.3693 179.542C96.4135 178.177 97.301 176.47 100.032 174.422C102.763 172.374 105.493 168.209 108.224 161.928C110.955 155.648 112.798 151.893 113.754 150.664C114.71 149.435 115.597 148.616 116.417 148.206C117.236 147.797 118.123 147.797 119.079 148.206ZM124.404 152.917C125.087 152.917 125.633 153.326 126.043 154.146C126.452 154.965 125.906 156.125 124.404 157.627C122.902 159.129 122.083 160.222 121.946 160.904C121.81 161.587 121.4 162.201 120.718 162.748C120.035 163.294 118.123 165.888 114.983 170.53C111.843 175.173 109.658 179.132 108.429 182.409C107.2 185.686 106.04 187.257 104.947 187.12C103.855 186.983 103.104 186.642 102.694 186.096C102.285 185.55 102.148 184.731 102.285 183.638C102.421 182.546 103.377 180.976 105.152 178.928C106.927 176.88 108.702 174.149 110.477 170.735C112.252 167.322 114.164 164.386 116.212 161.928C118.26 159.471 119.557 157.627 120.103 156.399C120.649 155.17 121.332 154.282 122.151 153.736C122.97 153.19 123.721 152.917 124.404 152.917ZM425.679 154.555C426.225 154.624 426.771 154.692 427.318 154.76C428.41 154.897 430.117 155.716 432.438 157.218C434.759 158.72 437.285 160.904 440.016 163.772C442.747 166.639 444.59 169.643 445.546 172.783C446.501 175.924 446.911 178.04 446.774 179.132C446.638 180.225 446.092 181.385 445.136 182.614C444.658 183.229 444.18 183.843 443.702 184.457C443.566 184.321 443.429 184.184 443.293 184.048C443.02 183.775 443.156 183.16 443.702 182.205C444.248 181.249 444.59 180.02 444.726 178.518C444.863 177.016 444.59 175.309 443.907 173.398C443.224 171.486 441.586 169.028 438.992 166.025C436.397 163.021 434.827 161.382 434.281 161.109C433.735 160.836 432.233 160.768 429.775 160.904C428.546 160.973 427.318 161.041 426.089 161.109C426.02 160.017 425.952 158.925 425.884 157.832C425.816 156.74 425.747 155.648 425.679 154.555ZM403.969 155.374C404.037 155.511 404.106 155.648 404.174 155.784C404.311 156.057 403.969 156.808 403.15 158.037C402.331 159.266 401.307 161.655 400.078 165.205C398.849 168.755 398.098 170.53 397.825 170.53C397.552 170.53 397.074 170.121 396.391 169.302C395.709 168.482 395.367 167.185 395.367 165.41C395.367 163.635 395.913 161.997 397.006 160.495C398.098 158.993 399.532 157.764 401.307 156.808C402.194 156.33 403.082 155.852 403.969 155.374ZM131.163 157.627C132.255 158.037 132.733 158.993 132.597 160.495C132.46 161.997 130.071 165.752 125.428 171.759C120.786 177.767 117.577 182.614 115.802 186.301C114.027 189.987 112.798 191.899 112.116 192.035C111.433 192.172 110.818 192.104 110.272 191.831C109.726 191.558 109.453 190.738 109.453 189.373C109.453 188.007 110.067 185.891 111.296 183.024C112.525 180.156 115.461 175.378 120.103 168.687C124.746 161.997 127.476 158.378 128.296 157.832C129.115 157.286 130.071 157.218 131.163 157.627ZM66.0334 159.88C70.1296 161.109 74.2258 162.338 78.322 163.567C86.5144 166.025 90.8837 167.663 91.4298 168.482C91.976 169.302 92.0442 169.984 91.6346 170.53C91.225 171.077 90.8154 171.35 90.4058 171.35C89.9962 171.35 87.1971 170.599 82.0086 169.097C76.8201 167.595 73.1335 166.161 70.9489 164.796C68.7642 163.43 67.3988 162.27 66.8527 161.314C66.5796 160.836 66.3065 160.358 66.0334 159.88ZM412.366 160.29C412.776 160.563 412.981 160.973 412.981 161.519C412.981 162.065 412.298 162.679 410.933 163.362C409.567 164.045 408.27 165.752 407.041 168.482C405.813 171.213 404.993 172.647 404.584 172.783C404.379 172.852 404.174 172.92 403.969 172.988C404.652 171.145 405.335 169.302 406.017 167.458C407.383 163.772 408.68 161.587 409.909 160.904C411.138 160.222 411.957 160.017 412.366 160.29ZM191.172 161.928C195.405 161.928 199.638 162.201 203.87 162.748C208.103 163.294 212.609 163.635 217.388 163.772C222.167 163.908 230.359 164.932 241.965 166.844C253.571 168.755 260.466 169.711 262.651 169.711C264.835 169.711 270.98 171.418 281.083 174.831C291.187 178.245 299.448 181.59 305.865 184.867C312.283 188.144 316.516 190.602 318.564 192.24C320.612 193.879 323.479 198.248 327.166 205.348C330.852 212.448 332.695 216.749 332.695 218.251C332.695 219.753 332.286 220.709 331.467 221.118C330.647 221.528 330.101 222.484 329.828 223.986C329.692 224.737 329.555 225.488 329.419 226.239C328.463 225.966 327.507 225.692 326.551 225.419C324.64 224.873 323.206 224.259 322.25 223.576C321.294 222.893 321.226 220.709 322.045 217.022C322.865 213.336 323.274 210.878 323.274 209.649C323.274 208.42 323.138 207.669 322.865 207.396C322.592 207.123 322.114 207.123 321.431 207.396C320.748 207.669 320.066 209.99 319.383 214.36C319.042 216.544 318.7 218.729 318.359 220.914C317.813 220.572 317.267 220.231 316.72 219.89C315.628 219.207 313.99 218.592 311.805 218.046C309.62 217.5 308.46 217.09 308.323 216.817C308.187 216.544 308.938 214.496 310.576 210.673C312.215 206.85 312.897 204.529 312.624 203.71C312.488 203.3 312.351 202.89 312.215 202.481C311.805 202.686 311.395 202.89 310.986 203.095C310.166 203.505 309.006 205.689 307.504 209.649C306.002 213.609 301.018 214.223 292.553 211.492C284.087 208.762 280.674 204.119 282.312 197.565C283.951 191.011 284.634 187.257 284.36 186.301C284.224 185.823 284.087 185.345 283.951 184.867C283.609 185.004 283.268 185.14 282.927 185.277C282.244 185.55 281.698 186.232 281.288 187.325C280.879 188.417 280.401 190.602 279.855 193.879C279.308 197.156 278.694 199.613 278.011 201.252C277.329 202.89 277.056 204.051 277.192 204.734C277.26 205.075 277.329 205.416 277.397 205.758C273.164 204.938 268.931 204.119 264.699 203.3C256.233 201.661 252.001 197.36 252.001 190.397C252.001 186.915 252.001 183.433 252.001 179.952C251.591 180.02 251.181 180.088 250.772 180.156C249.952 180.293 249.475 180.771 249.338 181.59C249.201 182.409 249.065 185.755 248.928 191.626C248.86 194.561 248.792 197.497 248.724 200.433C246.675 200.296 244.627 200.16 242.579 200.023C238.483 199.75 236.298 199.272 236.025 198.589C235.752 197.907 235.684 194.084 235.821 187.12C235.957 180.156 235.821 176.47 235.411 176.06C235.001 175.651 234.455 175.582 233.772 175.855C233.09 176.129 232.748 180.088 232.748 187.734C232.748 191.558 232.748 195.381 232.748 199.204C231.11 199.135 229.471 199.067 227.833 198.999C224.556 198.862 222.918 196.883 222.918 193.059C222.918 189.236 222.713 185.891 222.303 183.024C221.894 180.156 221.484 178.381 221.074 177.699C220.665 177.016 220.255 176.675 219.845 176.675C219.436 176.675 219.094 176.811 218.821 177.084C218.548 177.357 218.412 178.04 218.412 179.132C218.412 180.225 218.685 182.478 219.231 185.891C219.777 189.305 219.982 192.445 219.845 195.312C219.709 198.18 218.07 199.613 214.93 199.613C211.79 199.613 210.151 196.951 210.015 191.626C209.878 186.301 210.151 183.502 210.834 183.229C211.516 182.956 211.926 182.546 212.063 182C212.199 181.454 212.063 180.976 211.653 180.566C211.243 180.156 210.629 179.952 209.81 179.952C208.991 179.952 208.308 180.361 207.762 181.181C207.215 182 206.874 185.345 206.738 191.216C206.601 197.087 204.621 200.023 200.798 200.023C196.975 200.023 194.859 196.814 194.449 190.397C194.039 183.98 194.108 180.634 194.654 180.361C195.2 180.088 195.473 179.679 195.473 179.132C195.473 178.586 194.995 178.108 194.039 177.699C193.084 177.289 192.333 177.357 191.787 177.904C191.24 178.45 191.104 182.273 191.377 189.373C191.513 192.923 191.65 196.473 191.787 200.023C190.148 200.091 188.51 200.16 186.871 200.228C185.233 200.296 183.594 200.364 181.956 200.433C181.819 197.224 181.683 194.015 181.546 190.807C181.273 184.389 181.273 180.907 181.546 180.361C181.819 179.815 181.546 179.269 180.727 178.723C179.908 178.177 179.293 178.04 178.884 178.313C178.474 178.586 178.337 182.341 178.474 189.578C178.61 196.814 177.45 200.637 174.992 201.047C172.534 201.457 170.896 201.593 170.077 201.457C169.257 201.32 168.848 198.931 168.848 194.288C168.848 189.646 168.643 185.618 168.233 182.205C167.824 178.791 167.482 176.88 167.209 176.47C166.936 176.06 166.527 175.855 165.981 175.855C165.434 175.855 165.025 175.992 164.752 176.265C164.479 176.538 164.342 177.426 164.342 178.928C164.342 180.43 164.547 181.863 164.956 183.229C165.366 184.594 165.639 188.349 165.776 194.493C165.912 200.637 165.161 204.119 163.523 204.938C161.884 205.758 160.314 206.304 158.812 206.577C158.061 206.713 157.31 206.85 156.559 206.987C156.491 203.436 156.423 199.886 156.354 196.336C156.218 189.236 155.74 185.618 154.921 185.482C154.511 185.413 154.102 185.345 153.692 185.277C153.692 189.1 153.692 192.923 153.692 196.746C153.692 204.392 152.531 208.762 150.21 209.854C147.889 210.946 146.455 211.492 145.909 211.492C145.363 211.492 144.953 207.737 144.68 200.228C144.407 192.718 144.134 188.485 143.861 187.53C143.588 186.574 143.042 185.959 142.223 185.686C141.813 185.55 141.403 185.413 140.994 185.277C140.857 185.755 140.721 186.232 140.584 186.71C140.311 187.666 140.448 189.236 140.994 191.421C141.54 193.606 141.881 197.497 142.018 203.095C142.154 208.693 142.018 211.902 141.608 212.721C141.199 213.54 140.243 214.223 138.741 214.769C137.99 215.042 137.239 215.315 136.488 215.589C136.488 213.336 136.488 211.083 136.488 208.83C136.488 204.324 136.693 201.935 137.102 201.661C137.512 201.388 137.717 200.979 137.717 200.433C137.717 199.886 137.444 199.272 136.898 198.589C136.351 197.907 135.737 197.565 135.054 197.565C134.372 197.565 133.894 200.842 133.621 207.396C133.484 210.673 133.348 213.95 133.211 217.227C132.938 216.681 132.665 216.135 132.392 215.589C131.846 214.496 131.368 212.858 130.958 210.673C130.548 208.488 130.275 205.28 130.139 201.047C130.002 196.814 130.958 192.65 133.006 188.554C135.054 184.457 136.829 181.658 138.331 180.156C139.833 178.655 141.199 177.562 142.427 176.88C143.656 176.197 146.728 175.173 151.644 173.807C156.559 172.442 161.611 170.599 166.8 168.277C171.988 165.956 176.289 164.318 179.703 163.362C183.116 162.406 186.939 161.928 191.172 161.928ZM419.33 162.748C419.74 163.021 419.944 164.932 419.944 168.482C419.944 172.032 419.808 174.217 419.535 175.036C419.262 175.855 418.169 177.016 416.258 178.518C414.346 180.02 412.571 181.044 410.933 181.59C410.114 181.863 409.294 182.136 408.475 182.409C408.612 181.727 408.748 181.044 408.885 180.361C409.158 178.996 409.909 176.948 411.138 174.217C412.366 171.486 413.39 169.643 414.21 168.687C415.029 167.731 415.575 166.707 415.848 165.615C416.121 164.523 416.667 163.703 417.487 163.157C418.306 162.611 418.92 162.475 419.33 162.748ZM135.669 163.157C135.805 163.294 135.942 163.43 136.078 163.567C136.351 163.84 136.078 165.001 135.259 167.049C134.44 169.097 134.03 171.077 134.03 172.988C134.03 174.9 133.006 177.016 130.958 179.337C128.91 181.658 127.203 184.799 125.838 188.758C124.472 192.718 123.175 195.176 121.946 196.132C120.718 197.087 119.625 197.429 118.669 197.156C117.714 196.883 116.963 196.268 116.417 195.312C115.87 194.357 116.348 192.24 117.85 188.963C119.352 185.686 122.697 180.566 127.886 173.603C130.48 170.121 133.074 166.639 135.669 163.157ZM426.498 167.253C427.591 167.39 428.683 167.527 429.775 167.663C431.96 167.936 433.94 169.438 435.715 172.169C437.49 174.9 438.241 177.016 437.968 178.518C437.695 180.02 436.397 181.727 434.076 183.638C431.755 185.55 428.615 186.232 424.655 185.686C422.675 185.413 420.695 185.14 418.716 184.867C419.808 183.775 420.9 182.682 421.992 181.59C424.177 179.405 425.474 177.426 425.884 175.651C426.293 173.876 426.498 172.032 426.498 170.121C426.498 169.165 426.498 168.209 426.498 167.253ZM402.74 176.675C402.877 176.675 403.013 176.675 403.15 176.675C403.082 177.153 403.013 177.63 402.945 178.108C402.809 179.064 402.467 179.952 401.921 180.771C401.375 181.59 401.034 182.546 400.897 183.638C400.761 184.731 400.487 185.277 400.078 185.277C399.873 185.277 399.668 185.277 399.463 185.277C399.941 183.843 400.419 182.409 400.897 180.976C401.853 178.108 402.467 176.675 402.74 176.675ZM265.518 181.795C264.972 182.478 264.426 184.116 263.879 186.71C263.333 189.305 262.924 192.308 262.651 195.722C262.378 199.135 262.446 201.115 262.855 201.661C263.265 202.208 263.811 202.344 264.494 202.071C265.177 201.798 265.654 199.682 265.928 195.722C266.201 191.762 266.679 188.69 267.361 186.506C268.044 184.321 268.385 182.956 268.385 182.409C268.385 181.863 268.044 181.454 267.361 181.181C266.679 180.907 266.064 181.112 265.518 181.795ZM296.035 187.325C295.625 187.598 295.352 189.373 295.215 192.65C295.079 195.927 294.464 199.272 293.372 202.686C292.28 206.099 291.87 208.284 292.143 209.239C292.416 210.195 292.758 210.673 293.167 210.673C293.577 210.673 293.986 210.4 294.396 209.854C294.806 209.308 295.488 207.328 296.444 203.914C297.4 200.501 298.014 197.019 298.287 193.469C298.561 189.919 298.356 187.939 297.673 187.53C296.99 187.12 296.444 187.052 296.035 187.325ZM419.33 188.144C422.743 188.144 424.792 188.349 425.474 188.758C425.816 188.963 426.157 189.168 426.498 189.373C426.293 189.646 426.089 189.919 425.884 190.192C425.474 190.738 424.314 190.943 422.402 190.807C420.491 190.67 418.852 190.738 417.487 191.011C416.121 191.284 414.415 191.831 412.366 192.65C410.318 193.469 408.543 194.63 407.041 196.132C405.539 197.634 404.652 198.316 404.379 198.18C404.106 198.043 403.969 197.36 403.969 196.132C403.969 194.903 404.242 193.879 404.788 193.059C405.335 192.24 407.041 191.216 409.909 189.987C412.776 188.758 415.916 188.144 419.33 188.144ZM438.377 189.578C438.65 189.646 438.923 189.714 439.196 189.783C438.787 190.192 438.377 190.602 437.968 191.011C437.148 191.831 436.124 192.582 434.895 193.264C433.667 193.947 432.779 194.63 432.233 195.312C431.687 195.995 431.209 196.2 430.799 195.927C430.594 195.79 430.39 195.654 430.185 195.517C430.526 195.039 430.868 194.561 431.209 194.084C431.892 193.128 433.12 192.104 434.895 191.011C436.67 189.919 437.831 189.441 438.377 189.578ZM417.282 194.288C417.623 194.288 417.965 194.288 418.306 194.288C418.306 194.425 418.306 194.561 418.306 194.698C418.306 194.971 417.76 195.585 416.667 196.541C415.575 197.497 414.688 198.794 414.005 200.433C413.322 202.071 412.366 202.89 411.138 202.89C409.909 202.89 408.953 202.686 408.27 202.276C407.588 201.866 407.314 201.252 407.451 200.433C407.588 199.613 407.929 198.931 408.475 198.385C409.021 197.838 410.455 197.019 412.776 195.927C415.097 194.834 416.599 194.288 417.282 194.288ZM441.04 198.385C441.996 198.931 442.951 200.637 443.907 203.505C444.863 206.372 445.546 209.854 445.955 213.95C446.365 218.046 446.501 221.596 446.365 224.6C446.297 226.102 446.228 227.604 446.16 229.106C445.682 228.901 445.204 228.696 444.726 228.492C443.771 228.082 443.088 224.464 442.678 217.637C442.269 210.81 441.791 206.509 441.245 204.734C440.698 202.959 440.016 201.593 439.196 200.637C438.377 199.682 438.241 198.931 438.787 198.385C439.333 197.838 440.084 197.838 441.04 198.385ZM435.92 201.661C436.466 201.935 437.08 202.754 437.763 204.119C438.446 205.485 439.06 209.581 439.606 216.408C439.879 219.821 440.152 223.235 440.425 226.648C437.695 226.102 434.964 225.556 432.233 225.01C426.771 223.917 422.266 223.235 418.716 222.962C415.165 222.689 412.162 222.62 409.704 222.757C407.246 222.893 405.13 223.235 403.355 223.781C402.467 224.054 401.58 224.327 400.692 224.6C400.761 222.962 400.829 221.323 400.897 219.685C400.965 218.046 401.034 216.408 401.102 214.769C402.467 215.315 403.833 215.862 405.198 216.408C407.929 217.5 410.455 217.841 412.776 217.432C415.097 217.022 417.214 216.203 419.125 214.974C421.037 213.745 422.47 213.131 423.426 213.131C424.382 213.131 425.543 212.653 426.908 211.697C428.273 210.741 429.57 209.512 430.799 208.011C432.028 206.509 432.779 205.211 433.052 204.119C433.325 203.027 433.735 202.276 434.281 201.866C434.827 201.457 435.373 201.388 435.92 201.661ZM400.692 204.938C402.058 205.689 403.423 206.44 404.788 207.191C407.519 208.693 409.704 209.444 411.342 209.444C412.981 209.444 414.551 208.966 416.053 208.011C416.804 207.533 417.555 207.055 418.306 206.577C418.374 206.782 418.442 206.987 418.511 207.191C418.647 207.601 418.033 208.284 416.667 209.239C415.302 210.195 413.8 210.81 412.162 211.083C410.523 211.356 408.816 211.083 407.041 210.263C405.266 209.444 403.764 208.352 402.536 206.987C401.921 206.304 401.307 205.621 400.692 204.938ZM230.291 205.962C240.122 206.099 249.201 206.85 257.53 208.215C265.859 209.581 277.26 212.721 291.734 217.637C306.207 222.552 314.809 225.966 317.54 227.877C320.27 229.789 322.728 231.017 324.913 231.564C327.097 232.11 328.258 232.997 328.394 234.226C328.531 235.455 327.917 238.8 326.551 244.262C325.186 249.723 323.274 255.663 320.817 262.08C318.359 268.498 313.853 274.847 307.299 281.128C300.745 287.408 295.557 291.846 291.734 294.44C287.91 297.034 283.814 299.56 279.445 302.018C275.076 304.476 271.799 305.91 269.614 306.319C267.43 306.729 265.245 307.48 263.06 308.572C260.876 309.664 257.94 310.688 254.253 311.644C250.567 312.6 245.242 313.283 238.278 313.692C231.315 314.102 225.444 313.965 220.665 313.283C215.886 312.6 212.131 311.849 209.4 311.03C206.669 310.211 202.164 308.231 195.883 305.09C189.602 301.95 185.506 300.107 183.594 299.56C181.683 299.014 180.454 298.468 179.908 297.922C179.361 297.376 178.61 297.034 177.655 296.898C176.699 296.761 174.992 296.079 172.534 294.85C170.077 293.621 167.209 291.641 163.932 288.91C160.655 286.18 157.379 282.63 154.102 278.26C150.825 273.891 147.001 266.518 142.632 256.141C138.263 245.764 135.737 239.005 135.054 235.865C134.372 232.724 134.03 230.198 134.03 228.287C134.03 226.375 134.576 224.873 135.669 223.781C136.761 222.689 138.673 221.46 141.403 220.094C144.134 218.729 148.708 216.954 155.126 214.769C161.543 212.585 165.844 210.878 168.029 209.649C170.213 208.42 173.217 207.601 177.04 207.191C180.863 206.782 187.144 206.577 195.883 206.577C204.621 206.577 210.083 206.44 212.267 206.167C214.452 205.894 220.46 205.826 230.291 205.962ZM394.958 209.035C395.504 209.444 396.05 209.854 396.596 210.263C397.688 211.083 398.098 212.038 397.825 213.131C397.552 214.223 397.415 216.681 397.415 220.504C397.415 224.327 397.074 226.512 396.391 227.058C396.05 227.331 395.709 227.604 395.367 227.877C395.231 226.512 395.094 225.146 394.958 223.781C394.685 221.05 394.616 217.91 394.753 214.36C394.821 212.585 394.889 210.81 394.958 209.035ZM414.824 228.901C418.238 229.038 422.061 229.447 426.293 230.13C430.526 230.813 435.305 232.042 440.63 233.817C445.955 235.592 450.802 237.64 455.172 239.961C459.541 242.282 462.272 244.125 463.364 245.491C464.456 246.856 465.276 248.222 465.822 249.587C466.368 250.952 466.3 252.113 465.617 253.069C464.934 254.024 464.252 254.639 463.569 254.912C462.886 255.185 460.906 255.595 457.629 256.141C454.352 256.687 450.871 256.755 447.184 256.346C443.497 255.936 436.875 254.571 427.318 252.249C417.76 249.928 411.206 247.744 407.656 245.696C404.106 243.647 401.375 241.668 399.463 239.756C397.552 237.844 396.664 236.479 396.801 235.66C396.937 234.841 397.552 233.953 398.644 232.997C399.736 232.042 401.853 231.086 404.993 230.13C408.134 229.174 411.411 228.765 414.824 228.901ZM180.317 234.021C178.406 234.294 176.084 235.182 173.354 236.684C170.623 238.186 168.233 241.19 166.185 245.696C164.137 250.201 162.635 254.571 161.68 258.803C160.724 263.036 160.314 266.176 160.451 268.225C160.587 270.273 161.406 272.935 162.908 276.212C164.41 279.489 165.571 281.605 166.39 282.561C167.209 283.517 169.326 284.951 172.739 286.862C176.153 288.774 180.317 289.525 185.233 289.115C190.148 288.706 195.063 287.75 199.979 286.248C204.894 284.746 207.898 283.449 208.991 282.356C210.083 281.264 211.175 279.694 212.267 277.646C213.36 275.598 214.316 273.072 215.135 270.068C215.954 267.064 216.364 263.173 216.364 258.394C216.364 253.615 215.749 250.201 214.52 248.153C213.292 246.105 212.199 244.603 211.243 243.647C210.288 242.692 209.195 241.941 207.966 241.395C206.738 240.848 205.44 239.961 204.075 238.732C202.71 237.503 201.208 236.547 199.569 235.865C197.931 235.182 194.79 234.636 190.148 234.226C185.506 233.817 182.229 233.748 180.317 234.021ZM265.518 234.841C263.606 235.114 261.285 236.001 258.554 237.503C255.824 239.005 253.366 242.145 251.181 246.924C248.997 251.703 247.495 256.073 246.675 260.032C245.856 263.992 245.515 266.996 245.651 269.044C245.788 271.092 246.607 273.754 248.109 277.031C249.611 280.308 250.772 282.425 251.591 283.38C252.41 284.336 254.527 285.77 257.94 287.681C261.353 289.593 265.518 290.344 270.433 289.934C275.349 289.525 280.264 288.569 285.18 287.067C290.095 285.565 293.099 284.268 294.191 283.176C295.284 282.083 296.376 280.513 297.468 278.465C298.561 276.417 299.516 273.891 300.336 270.887C301.155 267.883 301.564 263.992 301.564 259.213C301.564 254.434 300.745 250.747 299.107 248.153C297.468 245.559 294.464 242.896 290.095 240.166C285.726 237.435 282.176 235.796 279.445 235.25C276.714 234.704 274.188 234.431 271.867 234.431C269.546 234.431 267.43 234.568 265.518 234.841ZM395.777 245.081C397.279 246.173 398.781 247.266 400.283 248.358C403.287 250.543 406.768 252.454 410.728 254.093C414.688 255.731 417.487 256.619 419.125 256.755C420.764 256.892 424.723 257.779 431.004 259.418C437.285 261.056 442.064 262.08 445.341 262.49C448.618 262.9 452.304 262.968 456.4 262.695C458.449 262.558 460.497 262.422 462.545 262.285C462.408 262.831 462.272 263.377 462.135 263.924C461.862 265.016 461.111 265.835 459.882 266.381C458.653 266.927 456.4 267.542 453.124 268.225C449.847 268.907 446.092 269.249 441.859 269.249C437.626 269.249 431.96 268.361 424.86 266.586C417.76 264.811 412.298 262.695 408.475 260.237C404.652 257.779 402.399 256.619 401.716 256.755C401.034 256.892 400.419 257.301 399.873 257.984C399.327 258.667 399.122 259.486 399.259 260.442C399.395 261.398 399.805 262.217 400.487 262.9C401.17 263.582 402.399 264.265 404.174 264.948C405.949 265.63 407.656 266.586 409.294 267.815C410.933 269.044 412.844 270 415.029 270.682C417.214 271.365 420.968 272.321 426.293 273.55C431.619 274.778 435.715 275.461 438.582 275.598C441.449 275.734 445.682 275.393 451.28 274.574C454.079 274.164 456.878 273.754 459.677 273.345C459.814 278.67 459.951 283.995 460.087 289.32C460.36 299.97 460.224 306.592 459.677 309.186C459.131 311.781 457.971 314.307 456.196 316.764C454.421 319.222 452.441 320.929 450.256 321.885C448.072 322.84 444.658 323.25 440.016 323.114C435.373 322.977 431.55 322.499 428.546 321.68C425.543 320.861 422.402 320.246 419.125 319.837C415.848 319.427 413.049 318.744 410.728 317.788C408.407 316.833 405.198 315.945 401.102 315.126C397.006 314.307 393.183 312.873 389.633 310.825C386.083 308.777 383.557 306.183 382.055 303.042C380.553 299.902 379.87 296.557 380.007 293.007C380.143 289.456 380.553 286.384 381.235 283.79C381.918 281.196 383.147 278.397 384.922 275.393C386.697 272.389 388.54 268.771 390.452 264.538C392.363 260.305 393.729 256.004 394.548 251.635C394.958 249.45 395.367 247.266 395.777 245.081ZM224.761 280.308C222.167 280.854 220.05 281.879 218.412 283.38C216.773 284.882 215.681 286.248 215.135 287.477C214.589 288.706 214.316 289.934 214.316 291.163C214.316 292.392 214.589 293.484 215.135 294.44C215.681 295.396 217.388 296.42 220.255 297.512C223.122 298.605 225.648 299.219 227.833 299.356C230.018 299.492 231.588 299.424 232.544 299.151C233.499 298.878 234.933 298.058 236.845 296.693C238.756 295.328 239.917 293.962 240.326 292.597C240.736 291.232 240.736 289.525 240.326 287.477C239.917 285.429 238.893 283.654 237.254 282.152C235.616 280.65 233.772 279.83 231.724 279.694C229.676 279.557 227.355 279.762 224.761 280.308ZM296.239 299.151C296.512 299.424 296.171 300.175 295.215 301.404C294.26 302.633 293.713 303.657 293.577 304.476C293.44 305.295 292.826 306.456 291.734 307.958C290.641 309.46 289.822 310.347 289.276 310.62C289.003 310.757 288.73 310.893 288.457 311.03C288.184 310.006 287.91 308.982 287.637 307.958C287.091 305.91 288.32 303.861 291.324 301.813C294.328 299.765 295.966 298.878 296.239 299.151ZM300.336 304.271C301.428 304.408 302.042 304.681 302.179 305.09C302.315 305.5 301.633 306.661 300.131 308.572C298.629 310.484 297.059 312.873 295.42 315.74C293.782 318.608 292.758 320.11 292.348 320.246C292.143 320.314 291.938 320.383 291.734 320.451C291.461 319.359 291.187 318.266 290.914 317.174C290.368 314.989 290.436 313.761 291.119 313.487C291.802 313.214 292.348 312.532 292.758 311.439C293.167 310.347 294.26 308.845 296.035 306.934C297.81 305.022 299.243 304.135 300.336 304.271ZM308.528 305.295C308.665 305.295 308.801 305.295 308.938 305.295C308.869 305.773 308.801 306.251 308.733 306.729C308.596 307.685 308.118 308.436 307.299 308.982C306.48 309.528 304.841 311.508 302.384 314.921C299.926 318.335 298.083 320.588 296.854 321.68C296.239 322.226 295.625 322.772 295.011 323.318C295.011 323.045 295.011 322.772 295.011 322.499C295.011 321.953 296.376 319.564 299.107 315.331C301.838 311.098 303.749 308.436 304.841 307.343C305.934 306.251 306.753 305.636 307.299 305.5C307.845 305.363 308.255 305.295 308.528 305.295ZM182.775 306.114C184.14 306.387 187.008 307.616 191.377 309.801C195.746 311.986 197.589 315.604 196.907 320.656C196.565 323.182 196.224 325.708 195.883 328.234C193.357 327.21 190.831 326.186 188.305 325.162C183.253 323.114 179.976 321.543 178.474 320.451C176.972 319.359 176.699 316.969 177.655 313.283C178.61 309.596 179.361 307.411 179.908 306.729C180.454 306.046 181.409 305.841 182.775 306.114ZM280.879 308.367C281.288 308.504 281.971 310.347 282.927 313.897C283.883 317.447 280.674 320.929 273.301 324.342C269.614 326.049 265.928 327.756 262.241 329.463C261.831 327.892 261.422 326.322 261.012 324.752C260.193 321.612 259.988 319.359 260.398 317.993C260.807 316.628 262.378 315.399 265.108 314.307C267.839 313.214 270.092 312.532 271.867 312.259C273.642 311.986 275.485 311.235 277.397 310.006C279.308 308.777 280.469 308.231 280.879 308.367ZM171.715 309.391C171.783 309.664 171.852 309.937 171.92 310.211C172.057 310.757 171.852 311.712 171.306 313.078C170.759 314.443 169.804 318.471 168.438 325.162C167.073 331.852 166.39 338.884 166.39 346.257C166.39 353.63 165.981 357.385 165.161 357.522C164.342 357.658 162.635 358.682 160.041 360.594C157.447 362.505 154.033 365.646 149.801 370.015C145.568 374.384 143.656 377.183 144.066 378.412C144.475 379.641 145.568 380.938 147.343 382.304C149.118 383.669 150.552 385.512 151.644 387.833C152.736 390.155 153.146 393.158 152.873 396.845C152.6 400.532 151.712 403.809 150.21 406.676C148.708 409.543 146.865 412.001 144.68 414.049C142.496 416.097 140.584 417.394 138.946 417.94C137.307 418.487 134.918 418.76 131.777 418.76C128.637 418.76 125.633 417.872 122.766 416.097C119.898 414.322 117.714 412.001 116.212 409.134C114.71 406.266 113.549 404.491 112.73 403.809C111.911 403.126 111.433 401.419 111.296 398.688C111.16 395.957 111.433 393.841 112.116 392.339C112.798 390.837 113.14 389.677 113.14 388.857C113.14 388.038 112.935 387.355 112.525 386.809C112.116 386.263 111.228 385.922 109.863 385.785C108.497 385.649 106.654 386.058 104.333 387.014C102.012 387.97 98.7347 388.243 94.502 387.833C90.2692 387.424 87.7432 386.946 86.924 386.4C86.1048 385.854 85.4221 384.966 84.8759 383.737C84.3298 382.508 83.5788 381.416 82.623 380.46C81.6672 379.504 81.2576 377.593 81.3941 374.726C81.5307 371.858 82.1451 367.899 83.2374 362.847C84.3298 357.795 85.149 354.927 85.6951 354.245C86.2413 353.562 88.699 352.265 93.0683 350.353C97.4376 348.442 100.578 347.691 102.49 348.1C104.401 348.51 106.995 348.783 110.272 348.92C113.549 349.056 115.734 349.466 116.826 350.148C117.919 350.831 118.738 351.65 119.284 352.606C119.83 353.562 120.854 354.04 122.356 354.04C123.858 354.04 125.087 353.289 126.043 351.787C126.998 350.285 128.842 348.169 131.572 345.438C134.303 342.707 138.195 339.157 143.247 334.788C148.299 330.418 151.712 327.21 153.487 325.162C155.262 323.114 158.744 319.973 163.932 315.74C166.527 313.624 169.121 311.508 171.715 309.391ZM311.19 311.235C312.146 311.644 312.624 311.986 312.624 312.259C312.624 312.532 311.6 313.692 309.552 315.74C307.504 317.788 304.568 321.475 300.745 326.8C298.834 329.463 296.922 332.125 295.011 334.788C294.874 334.173 294.737 333.559 294.601 332.944C294.328 331.716 294.464 330.896 295.011 330.487C295.557 330.077 296.239 328.985 297.059 327.21C297.878 325.435 300.199 322.226 304.022 317.584C307.845 312.941 310.235 310.825 311.19 311.235ZM318.973 312.873C319.929 313.01 320.475 313.556 320.612 314.512C320.748 315.467 319.929 316.833 318.154 318.608C316.379 320.383 314.877 322.226 313.648 324.138C312.419 326.049 310.44 328.37 307.709 331.101C304.978 333.832 302.452 336.904 300.131 340.318C298.97 342.024 297.81 343.731 296.649 345.438C296.581 345.096 296.512 344.755 296.444 344.414C296.308 343.731 296.512 343.048 297.059 342.366C297.605 341.683 297.673 340.932 297.263 340.113C296.854 339.293 296.717 338.611 296.854 338.065C296.99 337.518 298.834 334.924 302.384 330.282C305.934 325.64 307.777 323.045 307.914 322.499C308.05 321.953 309.689 320.178 312.829 317.174C315.969 314.17 318.017 312.737 318.973 312.873ZM210.629 317.788C214.452 318.744 218.07 319.427 221.484 319.837C224.897 320.246 226.604 322.84 226.604 327.619C226.604 330.009 226.604 332.398 226.604 334.788C224.829 334.788 223.054 334.788 221.279 334.788C217.729 334.788 215.067 334.378 213.292 333.559C211.516 332.74 209.264 332.057 206.533 331.511C203.802 330.965 202.573 328.78 202.846 324.957C203.119 321.134 203.529 318.744 204.075 317.788C204.621 316.833 206.806 316.833 210.629 317.788ZM323.479 317.993C324.162 317.993 324.776 318.266 325.322 318.813C325.869 319.359 326.073 320.11 325.937 321.065C325.8 322.021 325.322 322.704 324.503 323.114C323.684 323.523 321.772 325.366 318.768 328.643C315.765 331.92 313.716 334.583 312.624 336.631C311.532 338.679 310.713 339.908 310.166 340.318C309.62 340.727 309.347 341.205 309.347 341.751C309.347 342.297 308.323 343.594 306.275 345.643C304.227 347.691 302.998 349.124 302.588 349.944C302.179 350.763 301.633 351.514 300.95 352.196C300.267 352.879 299.516 353.221 298.697 353.221C298.287 353.221 297.878 353.221 297.468 353.221C297.468 352.743 297.468 352.265 297.468 351.787C297.468 350.831 298.492 348.646 300.54 345.233C302.588 341.819 305.524 338.065 309.347 333.968C313.17 329.872 316.311 326.186 318.768 322.909C321.226 319.632 322.796 317.993 323.479 317.993ZM252.615 318.403C253.025 318.403 253.298 318.608 253.434 319.017C253.571 319.427 254.049 321.68 254.868 325.776C255.277 327.824 255.687 329.872 256.097 331.92C254.527 332.193 252.956 332.467 251.386 332.74C248.246 333.286 244.354 333.559 239.712 333.559C237.391 333.559 235.07 333.559 232.748 333.559C232.817 331.442 232.885 329.326 232.953 327.21C233.09 322.977 236.298 320.451 242.579 319.632C248.86 318.813 252.205 318.403 252.615 318.403ZM286.613 326.39C287.023 326.8 287.569 329.258 288.252 333.764C288.935 338.269 287.842 341.273 284.975 342.775C282.108 344.277 279.582 345.165 277.397 345.438C275.212 345.711 272.686 346.325 269.819 347.281C268.385 347.759 266.952 348.237 265.518 348.715C265.177 346.598 264.835 344.482 264.494 342.366C263.811 338.133 264.904 335.402 267.771 334.173C270.638 332.944 272.755 331.852 274.12 330.896C275.485 329.941 277.807 328.848 281.083 327.619C284.36 326.39 286.204 325.981 286.613 326.39ZM174.992 326.186C178.337 327.619 181.683 329.053 185.028 330.487C191.718 333.354 194.79 337.314 194.244 342.366C193.971 344.892 193.698 347.418 193.425 349.944C190.831 348.92 188.236 347.895 185.642 346.871C180.454 344.823 177.04 342.98 175.402 341.342C173.763 339.703 172.944 338.133 172.944 336.631C172.944 335.129 173.285 333.013 173.968 330.282C174.309 328.916 174.651 327.551 174.992 326.186ZM322.865 328.643C325.595 330.487 328.326 332.33 331.057 334.173C336.519 337.86 344.233 341.956 354.201 346.462C364.168 350.968 370.722 354.518 373.862 357.112C377.003 359.706 379.051 361.754 380.007 363.256C380.962 364.758 381.85 366.533 382.669 368.581C383.488 370.629 383.83 373.497 383.693 377.183C383.557 380.87 382.532 384.556 380.621 388.243C378.709 391.93 376.866 394.729 375.091 396.64C373.316 398.552 372.019 399.644 371.2 399.917C370.38 400.19 369.425 400.805 368.332 401.76C367.24 402.716 365.465 403.399 363.007 403.809C360.55 404.218 358.911 404.013 358.092 403.194C357.682 402.784 357.273 402.375 356.863 401.965C357.614 401.283 358.365 400.6 359.116 399.917C360.618 398.552 362.666 397.596 365.26 397.05C367.854 396.504 370.107 395.275 372.019 393.363C373.93 391.452 375.501 388.653 376.73 384.966C377.958 381.279 378.505 378.276 378.368 375.954C378.231 373.633 377.958 371.995 377.549 371.039C377.139 370.083 376.32 368.65 375.091 366.738C373.862 364.826 372.565 363.256 371.2 362.027C369.834 360.798 365.055 358.273 356.863 354.449C348.671 350.626 341.912 347.076 336.587 343.799C331.262 340.522 327.37 337.655 324.913 335.197C322.455 332.74 321.499 331.033 322.045 330.077C322.318 329.599 322.592 329.121 322.865 328.643ZM331.876 330.691C334.129 331.647 336.382 332.603 338.635 333.559C343.141 335.47 347.374 336.836 351.333 337.655C355.293 338.474 358.638 339.498 361.369 340.727C364.1 341.956 367.377 343.048 371.2 344.004C375.023 344.96 378.231 346.189 380.826 347.691C383.42 349.193 385.468 350.626 386.97 351.992C388.472 353.357 390.11 355.405 391.885 358.136C393.66 360.867 394.889 364.212 395.572 368.172C396.255 372.131 396.391 375.545 395.982 378.412C395.572 381.279 394.685 383.874 393.319 386.195C391.954 388.516 390.725 390.223 389.633 391.315C388.54 392.407 387.243 393.363 385.741 394.182C384.239 395.002 383.01 395.343 382.055 395.207C381.577 395.138 381.099 395.07 380.621 395.002C381.372 393.636 382.123 392.271 382.874 390.906C384.376 388.175 385.468 385.717 386.151 383.532C386.833 381.348 387.038 378.276 386.765 374.316C386.492 370.356 385.468 366.875 383.693 363.871C381.918 360.867 379.46 357.999 376.32 355.269C373.18 352.538 366.899 349.056 357.477 344.823C348.056 340.591 341.434 337.177 337.611 334.583C335.699 333.286 333.788 331.989 331.876 330.691ZM319.178 333.764C319.724 333.9 321.226 335.266 323.684 337.86C326.142 340.454 328.599 342.57 331.057 344.209C333.515 345.847 335.221 346.803 336.177 347.076C337.133 347.349 339.113 348.442 342.117 350.353C345.121 352.265 347.305 353.425 348.671 353.835C350.036 354.245 351.606 355.064 353.381 356.293C355.156 357.522 356.385 358.136 357.068 358.136C357.751 358.136 359.116 359.16 361.164 361.208C363.212 363.256 364.441 364.69 364.851 365.509C365.26 366.328 365.806 368.65 366.489 372.473C367.172 376.296 367.172 379.504 366.489 382.099C365.806 384.693 364.236 387.902 361.778 391.725C359.321 395.548 356.931 398.347 354.61 400.122C352.289 401.897 350.036 402.784 347.851 402.784C345.667 402.784 343.892 402.238 342.526 401.146C341.161 400.054 339.864 398.62 338.635 396.845C337.406 395.07 336.109 392.749 334.744 389.881C333.378 387.014 332.491 384.693 332.081 382.918C331.671 381.143 330.374 378.207 328.19 374.111C326.005 370.015 323.82 366.806 321.636 364.485C319.451 362.164 318.017 360.867 317.335 360.594C316.652 360.321 314.536 358.614 310.986 355.473C307.436 352.333 305.865 350.49 306.275 349.944C306.685 349.397 307.094 349.124 307.504 349.124C307.914 349.124 309.074 349.944 310.986 351.582C312.897 353.221 314.604 354.449 316.106 355.269C317.608 356.088 319.383 357.931 321.431 360.798C323.479 363.666 326.073 368.24 329.214 374.521C332.354 380.802 334.948 385.171 336.996 387.629C339.045 390.086 341.093 391.93 343.141 393.158C345.189 394.387 346.964 395.07 348.466 395.207C349.968 395.343 351.265 395.275 352.357 395.002C353.45 394.729 355.361 393.5 358.092 391.315C360.823 389.13 362.598 387.014 363.417 384.966C364.236 382.918 364.373 380.255 363.827 376.978C363.28 373.702 361.847 370.698 359.526 367.967C357.204 365.236 355.702 363.734 355.02 363.461C354.337 363.188 353.313 362.369 351.948 361.003C350.582 359.638 348.739 358.409 346.418 357.317C344.097 356.224 342.185 355.064 340.683 353.835C339.181 352.606 336.45 350.899 332.491 348.715C328.531 346.53 325.049 343.731 322.045 340.318C319.042 336.904 317.676 334.924 317.949 334.378C318.222 333.832 318.632 333.627 319.178 333.764ZM201.617 336.836C202.914 337.109 204.212 337.382 205.509 337.655C208.103 338.201 210.219 338.884 211.858 339.703C213.496 340.522 215.271 341.069 217.183 341.342C219.094 341.615 221.143 341.683 223.327 341.546C224.42 341.478 225.512 341.41 226.604 341.342C226.672 343.458 226.741 345.574 226.809 347.691C226.877 349.807 226.945 351.923 227.014 354.04C223.532 353.835 220.05 353.63 216.568 353.425C209.605 353.016 205.099 352.606 203.051 352.196C201.003 351.787 200.252 349.124 200.798 344.209C201.071 341.751 201.344 339.293 201.617 336.836ZM315.491 337.655C316.516 338.884 317.54 340.113 318.564 341.342C320.612 343.799 323.343 346.325 326.756 348.92C328.463 350.217 330.17 351.514 331.876 352.811C331.057 352.538 330.238 352.265 329.419 351.992C327.78 351.446 326.278 350.558 324.913 349.329C323.547 348.1 322.114 347.145 320.612 346.462C319.11 345.779 317.676 344.892 316.311 343.799C314.945 342.707 314.126 341.956 313.853 341.546C313.58 341.137 313.785 340.386 314.467 339.293C314.809 338.747 315.15 338.201 315.491 337.655ZM256.916 338.269C257.189 338.406 257.667 340.591 258.35 344.823C258.691 346.94 259.032 349.056 259.374 351.172C256.575 351.65 253.776 352.128 250.976 352.606C245.378 353.562 241.009 353.972 237.869 353.835C236.298 353.767 234.728 353.698 233.158 353.63C233.226 351.309 233.295 348.988 233.363 346.667C233.431 344.345 233.499 342.024 233.568 339.703C235.547 339.771 237.527 339.84 239.507 339.908C243.467 340.044 247.29 339.771 250.976 339.089C254.663 338.406 256.643 338.133 256.916 338.269ZM312.01 344.209C312.419 344.209 313.17 344.755 314.263 345.847C315.355 346.94 318.495 349.056 323.684 352.196C326.278 353.767 328.872 355.337 331.467 356.907C331.33 356.975 331.194 357.044 331.057 357.112C330.784 357.248 330.306 357.044 329.623 356.497C328.941 355.951 327.644 355.405 325.732 354.859C323.82 354.313 322.387 354.04 321.431 354.04C320.475 354.04 319.383 353.698 318.154 353.016C316.925 352.333 315.218 351.104 313.034 349.329C310.849 347.554 310.03 346.257 310.576 345.438C311.122 344.619 311.6 344.209 312.01 344.209ZM172.944 347.895C173.832 348.442 174.719 348.988 175.607 349.534C177.382 350.626 180.863 352.128 186.052 354.04C191.24 355.951 196.156 357.317 200.798 358.136C205.44 358.955 210.151 359.57 214.93 359.979C219.709 360.389 225.102 360.594 231.11 360.594C237.118 360.594 242.921 360.184 248.519 359.365C254.117 358.546 262.104 356.566 272.481 353.425C282.859 350.285 288.457 349.124 289.276 349.944C290.095 350.763 290.505 352.128 290.505 354.04C290.505 355.951 290.095 359.706 289.276 365.304C288.457 370.902 287.637 374.589 286.818 376.364C285.999 378.139 283.883 381.484 280.469 386.4C277.056 391.315 274.256 394.387 272.072 395.616C269.887 396.845 267.839 397.732 265.928 398.279C264.016 398.825 261.08 400.19 257.121 402.375C253.161 404.559 249.201 406.13 245.242 407.085C241.282 408.041 237.596 408.519 234.182 408.519C230.769 408.519 225.58 408.041 218.617 407.085C211.653 406.13 206.328 404.286 202.641 401.556C198.955 398.825 193.63 394.182 186.666 387.629C179.703 381.075 175.675 375.886 174.583 372.063C173.49 368.24 172.944 363.256 172.944 357.112C172.944 354.04 172.944 350.968 172.944 347.895ZM334.744 354.04C335.085 354.176 335.426 354.313 335.768 354.449C336.45 354.722 336.928 356.361 337.201 359.365C337.474 362.369 338.43 366.397 340.069 371.449C341.707 376.501 343.823 381.211 346.418 385.58C347.715 387.765 349.012 389.95 350.309 392.134C349.831 392.134 349.353 392.134 348.875 392.134C347.92 392.134 346.418 391.52 344.37 390.291C342.322 389.062 340.683 387.629 339.454 385.99C338.225 384.352 337.065 379.641 335.972 371.858C334.88 364.075 334.402 359.16 334.539 357.112C334.607 356.088 334.675 355.064 334.744 354.04ZM305.251 354.859C306.343 355.747 307.436 356.634 308.528 357.522C310.713 359.297 311.941 360.662 312.215 361.618C312.488 362.574 313.034 363.598 313.853 364.69C314.672 365.782 315.833 368.103 317.335 371.653C318.837 375.203 319.997 379.368 320.817 384.147C321.636 388.926 322.592 393.295 323.684 397.255C324.776 401.214 325.937 404.355 327.166 406.676C328.394 408.997 330.033 411.182 332.081 413.23C334.129 415.278 336.177 416.916 338.225 418.145C340.273 419.374 342.731 419.988 345.598 419.988C348.466 419.988 350.241 419.852 350.924 419.579C351.606 419.306 352.903 418.145 354.815 416.097C356.726 414.049 357.955 412.069 358.502 410.158C359.048 408.246 360.003 407.29 361.369 407.29C362.052 407.29 362.734 407.29 363.417 407.29C363.28 408.519 363.144 409.748 363.007 410.977C362.734 413.435 362.256 415.278 361.574 416.507C360.891 417.736 359.73 419.237 358.092 421.013C356.453 422.788 354.678 424.016 352.767 424.699C350.855 425.382 348.329 425.655 345.189 425.518C342.048 425.382 339.659 424.904 338.021 424.085C336.382 423.265 334.471 421.763 332.286 419.579C330.101 417.394 328.463 415.21 327.37 413.025C326.278 410.84 325.391 409.407 324.708 408.724C324.025 408.041 323.274 406.881 322.455 405.242C321.636 403.604 321.09 402.102 320.817 400.736C320.543 399.371 319.861 397.801 318.768 396.026C317.676 394.251 317.062 391.998 316.925 389.267C316.789 386.536 316.242 382.508 315.287 377.183C314.331 371.858 312.419 366.806 309.552 362.027C308.118 359.638 306.685 357.248 305.251 354.859ZM322.865 357.726C323.616 357.863 324.367 357.999 325.118 358.136C326.619 358.409 328.121 359.023 329.623 359.979C331.125 360.935 332.013 363.461 332.286 367.557C332.422 369.605 332.559 371.653 332.695 373.702C331.808 372.063 330.92 370.425 330.033 368.786C328.258 365.509 326.619 362.847 325.118 360.798C324.367 359.774 323.616 358.75 322.865 357.726ZM344.165 359.365C345.257 360.048 346.349 360.73 347.442 361.413C349.626 362.778 352.152 364.826 355.02 367.557C357.887 370.288 359.662 372.814 360.345 375.135C361.027 377.456 361.369 379.368 361.369 380.87C361.369 382.372 361.164 383.532 360.754 384.352C360.55 384.761 360.345 385.171 360.14 385.58C359.389 383.123 358.638 380.665 357.887 378.207C356.385 373.292 353.723 368.923 349.9 365.1C347.988 363.188 346.076 361.276 344.165 359.365ZM340.478 361.413C340.956 361.618 341.434 361.823 341.912 362.027C342.868 362.437 345.052 364.417 348.466 367.967C351.879 371.517 354.132 375.34 355.225 379.436C356.317 383.532 356.863 386.127 356.863 387.219C356.863 388.311 356.522 389.199 355.839 389.881C355.156 390.564 354.542 390.906 353.996 390.906C353.45 390.906 352.903 390.564 352.357 389.881C351.811 389.199 351.606 388.038 351.743 386.4C351.879 384.761 351.538 382.44 350.719 379.436C349.9 376.432 348.602 373.428 346.827 370.425C345.052 367.421 343.619 365.509 342.526 364.69C341.434 363.871 340.82 363.12 340.683 362.437C340.615 362.096 340.547 361.754 340.478 361.413ZM366.694 362.642C367.377 363.188 368.059 363.734 368.742 364.28C370.107 365.373 371.473 367.011 372.838 369.196C374.204 371.38 374.955 373.702 375.091 376.159C375.228 378.617 375.091 380.119 374.681 380.665C374.272 381.211 373.726 382.781 373.043 385.376C372.36 387.97 371.336 389.95 369.971 391.315C368.605 392.681 367.24 393.568 365.875 393.978C365.192 394.182 364.509 394.387 363.827 394.592C364.578 393.363 365.328 392.134 366.079 390.906C367.581 388.448 368.674 385.922 369.356 383.328C370.039 380.733 370.312 378.139 370.176 375.545C370.039 372.951 369.425 370.151 368.332 367.148C367.786 365.646 367.24 364.144 366.694 362.642ZM317.949 365.1C318.7 366.055 319.451 367.011 320.202 367.967C321.704 369.878 322.592 372.131 322.865 374.726C323.138 377.32 323.684 379.982 324.503 382.713C325.322 385.444 325.8 387.902 325.937 390.086C326.073 392.271 326.824 395.138 328.19 398.688C329.555 402.238 331.467 404.969 333.924 406.881C336.382 408.792 338.225 410.021 339.454 410.567C340.683 411.113 342.322 411.386 344.37 411.386C346.418 411.386 348.124 410.977 349.49 410.158C350.855 409.338 352.016 408.314 352.972 407.085C353.927 405.857 354.747 405.31 355.429 405.447C356.112 405.584 356.317 406.471 356.044 408.11C355.771 409.748 354.747 411.591 352.972 413.639C351.197 415.687 348.944 416.78 346.213 416.916C343.482 417.053 341.093 416.438 339.045 415.073C336.996 413.708 335.153 412.137 333.515 410.362C331.876 408.587 330.306 405.993 328.804 402.58C327.302 399.166 325.869 393.841 324.503 386.605C323.138 379.368 321.704 373.975 320.202 370.425C319.451 368.65 318.7 366.875 317.949 365.1ZM343.346 371.653C343.892 372.336 344.438 373.019 344.984 373.702C346.076 375.067 346.896 376.842 347.442 379.027C347.715 380.119 347.988 381.211 348.261 382.304C347.715 381.416 347.169 380.528 346.623 379.641C345.53 377.866 344.711 376.091 344.165 374.316C343.892 373.428 343.619 372.541 343.346 371.653ZM326.961 379.027C328.463 382.304 329.965 385.58 331.467 388.857C334.471 395.411 336.928 399.712 338.84 401.76C340.751 403.809 343.004 405.037 345.598 405.447C346.896 405.652 348.193 405.857 349.49 406.061C349.353 406.266 349.217 406.471 349.08 406.676C348.807 407.085 348.329 407.495 347.647 407.905C346.964 408.314 345.735 408.451 343.96 408.314C342.185 408.178 340.273 407.495 338.225 406.266C336.177 405.037 334.675 403.945 333.72 402.989C332.764 402.033 331.74 399.985 330.647 396.845C329.555 393.705 329.009 391.452 329.009 390.086C329.009 388.721 328.668 386.536 327.985 383.532C327.644 382.03 327.302 380.528 326.961 379.027Z" fill="#3b2c29" fill-rule="nonzero" opacity="1" stroke="none" vectornator:layerName="Curve 1"/>
</g>
</svg>
